<?xml version="1.0" encoding="UTF-8"?>
<svg id="Camada_1" xmlns="http://www.w3.org/2000/svg" version="1.1" viewBox="0 0 448 512">
  <!-- Generator: Adobe Illustrator 29.0.0, SVG Export Plug-In . SVG Version: 2.1.0 Build 186)  -->
  <defs>
    <style>
      .st0 {
        fill: #d25b2e;
      }

      .st1 {
        fill: #f0f0f0;
      }
    </style>
  </defs>
  <g>
    <path class="st0" d="M-468,96c0-17.7,14.3-32,32-32H-52c17.7,0,32,14.3,32,32s-14.3,32-32,32h-384c-17.7,0-32-14.3-32-32Z"/>
    <path d="M-468,256c0-17.7,14.3-32,32-32H-52c17.7,0,32,14.3,32,32s-14.3,32-32,32h-384c-17.7,0-32-14.3-32-32Z"/>
    <path class="st0" d="M-20,416c0,17.7-14.3,32-32,32h-384c-17.7,0-32-14.3-32-32s14.3-32,32-32H-52c17.7,0,32,14.3,32,32Z"/>
  </g>
  <g>
    <path class="st0" d="M0,96c0-17.7,14.3-32,32-32h384c17.7,0,32,14.3,32,32s-14.3,32-32,32H32C14.3,128,0,113.7,0,96Z"/>
    <path class="st1" d="M0,256c0-17.7,14.3-32,32-32h384c17.7,0,32,14.3,32,32s-14.3,32-32,32H32c-17.7,0-32-14.3-32-32Z"/>
    <path class="st0" d="M448,416c0,17.7-14.3,32-32,32H32c-17.7,0-32-14.3-32-32s14.3-32,32-32h384c17.7,0,32,14.3,32,32Z"/>
  </g>
</svg>