<?xml version="1.0" encoding="UTF-8"?>
<svg id="Camada_2" data-name="Camada 2" xmlns="http://www.w3.org/2000/svg" viewBox="0 0 778 778">
  <defs>
    <style>
      .cls-1 {
        fill: #f05a24;
      }
    </style>
  </defs>
  <g id="Camada_1-2" data-name="Camada 1">
    <g>
      <path class="cls-1" d="M0,43.22C0,19.35,19.35,0,43.22,0h129.67c23.87,0,43.22,19.35,43.22,43.22v129.67c0,23.87-19.35,43.22-43.22,43.22H43.22c-23.87,0-43.22-19.35-43.22-43.22V43.22Z"/>
      <path class="cls-1" d="M0,324.17c0-23.87,19.35-43.22,43.22-43.22h129.67c23.87,0,43.22,19.35,43.22,43.22v129.67c0,23.87-19.35,43.22-43.22,43.22H43.22c-23.87,0-43.22-19.35-43.22-43.22v-129.67Z"/>
      <path class="cls-1" d="M0,605.11c0-23.87,19.35-43.22,43.22-43.22h129.67c23.87,0,43.22,19.35,43.22,43.22v129.67c0,23.87-19.35,43.22-43.22,43.22H43.22c-23.87,0-43.22-19.35-43.22-43.22v-129.67Z"/>
      <path class="cls-1" d="M280.94,43.22c0-23.87,19.35-43.22,43.22-43.22h129.67c23.87,0,43.22,19.35,43.22,43.22v129.67c0,23.87-19.35,43.22-43.22,43.22h-129.67c-23.87,0-43.22-19.35-43.22-43.22V43.22Z"/>
      <path class="cls-1" d="M280.94,324.17c0-23.87,19.35-43.22,43.22-43.22h129.67c23.87,0,43.22,19.35,43.22,43.22v129.67c0,23.87-19.35,43.22-43.22,43.22h-129.67c-23.87,0-43.22-19.35-43.22-43.22v-129.67Z"/>
      <path class="cls-1" d="M280.94,605.11c0-23.87,19.35-43.22,43.22-43.22h129.67c23.87,0,43.22,19.35,43.22,43.22v129.67c0,23.87-19.35,43.22-43.22,43.22h-129.67c-23.87,0-43.22-19.35-43.22-43.22v-129.67Z"/>
      <path class="cls-1" d="M561.89,43.22c0-23.87,19.35-43.22,43.22-43.22h129.67c23.87,0,43.22,19.35,43.22,43.22v129.67c0,23.87-19.35,43.22-43.22,43.22h-129.67c-23.87,0-43.22-19.35-43.22-43.22V43.22Z"/>
      <path class="cls-1" d="M561.89,324.17c0-23.87,19.35-43.22,43.22-43.22h129.67c23.87,0,43.22,19.35,43.22,43.22v129.67c0,23.87-19.35,43.22-43.22,43.22h-129.67c-23.87,0-43.22-19.35-43.22-43.22v-129.67Z"/>
      <path class="cls-1" d="M561.89,605.11c0-23.87,19.35-43.22,43.22-43.22h129.67c23.87,0,43.22,19.35,43.22,43.22v129.67c0,23.87-19.35,43.22-43.22,43.22h-129.67c-23.87,0-43.22-19.35-43.22-43.22v-129.67Z"/>
    </g>
  </g>
</svg>