<?xml version="1.0" encoding="UTF-8"?>
<svg id="Camada_2" data-name="Camada 2" xmlns="http://www.w3.org/2000/svg" viewBox="0 0 829.87 778">
  <defs>
    <style>
      .cls-1 {
        fill: #f05a24;
      }
    </style>
  </defs>
  <g id="Camada_1-2" data-name="Camada 1">
    <g>
      <path class="cls-1" d="M739.1,778H90.77c-50.13,0-90.77-40.64-90.77-90.77v-25.93c0-50.13,40.64-90.77,90.77-90.77h648.33c50.13,0,90.77,40.64,90.77,90.77v25.93c0,50.13-40.64,90.77-90.77,90.77ZM90.77,622.4c-21.48,0-38.9,17.42-38.9,38.9v25.93c0,21.48,17.42,38.9,38.9,38.9h648.33c21.48,0,38.9-17.42,38.9-38.9h0v-25.93c0-21.48-17.42-38.9-38.9-38.9H90.77Z"/>
      <path class="cls-1" d="M739.1,492.73H90.77c-50.13,0-90.77-40.64-90.77-90.77v-25.93c0-50.13,40.64-90.77,90.77-90.77h648.33c50.13,0,90.77,40.64,90.77,90.77v25.93c0,50.13-40.64,90.77-90.77,90.77ZM90.77,337.13c-21.48,0-38.9,17.42-38.9,38.9v25.93c0,21.48,17.42,38.9,38.9,38.9h648.33c21.48,0,38.9-17.42,38.9-38.9v-25.93c0-21.48-17.42-38.9-38.9-38.9H90.77Z"/>
      <path class="cls-1" d="M739.1,207.47H90.77C40.64,207.47,0,166.83,0,116.7v-25.93C0,40.64,40.64,0,90.77,0h648.33c50.13,0,90.77,40.64,90.77,90.77v25.93c0,50.13-40.64,90.77-90.77,90.77ZM90.77,51.87c-21.48,0-38.9,17.42-38.9,38.9v25.93c0,21.48,17.42,38.9,38.9,38.9h648.33c21.48,0,38.9-17.42,38.9-38.9v-25.93c0-21.48-17.42-38.9-38.9-38.9H90.77Z"/>
    </g>
  </g>
</svg>