<?xml version="1.0" encoding="UTF-8"?>
<svg id="Camada_2" data-name="Camada 2" xmlns="http://www.w3.org/2000/svg" viewBox="0 0 280.65 384.73">
  <defs>
    <style>
      .cls-1 {
        fill: #f2f2f2;
      }

      .cls-2 {
        fill: #f15b27;
      }
    </style>
  </defs>
  <g id="Camada_1-2" data-name="Camada 1">
    <g>
      <path class="cls-2" d="M280.63,255.4l.02.06c.04,5.39-2.01,10.43-5.77,14.19l-109.31,109.31c-7.72,7.7-20.23,7.7-27.93,0-3.74-3.74-5.79-8.7-5.79-13.99s2.05-10.23,5.79-13.95l95.65-95.69-96.4-96.44c-3.74-3.7-5.79-8.66-5.79-13.94s2.05-10.25,5.79-13.99c3.72-3.72,8.68-5.77,13.97-5.77s10.23,2.05,13.95,5.77l110.06,110.06c3.76,3.76,5.81,8.86,5.77,14.33l-.02.06Z"/>
      <path class="cls-2" d="M143.86,225.93c3.74,3.72,5.81,8.68,5.81,13.95s-2.05,10.27-5.81,14.01c-7.72,7.7-20.25,7.7-27.95,0L5.77,143.76C1.99,139.98-.06,134.88,0,129.27c-.06-5.37,1.99-10.43,5.77-14.21L115.06,5.77c3.72-3.72,8.68-5.77,13.97-5.77s10.25,2.05,13.97,5.77c3.76,3.76,5.81,8.74,5.81,14.03s-2.07,10.22-5.81,13.95l-95.62,95.66,96.46,96.52Z"/>
      <path class="cls-1" d="M107.98,327.63c-2.89,2.89-6.75,4.49-10.83,4.49s-7.93-1.59-10.83-4.47l-62.2-62.22c-5.98-5.96-5.98-15.67,0-21.63,2.97-2.99,6.89-4.49,10.81-4.49s7.83,1.5,10.83,4.49l62.2,62.2c5.98,5.96,5.98,15.67.02,21.63Z"/>
      <path class="cls-1" d="M261.18,130.27c0,4.09-1.59,7.93-4.49,10.83-2.89,2.89-6.73,4.49-10.83,4.49s-7.91-1.59-10.81-4.49l-62.22-62.22c-5.96-5.96-5.96-15.67,0-21.63,2.99-2.99,6.91-4.49,10.83-4.49s7.83,1.5,10.83,4.49l62.2,62.2c2.89,2.89,4.49,6.73,4.49,10.83Z"/>
    </g>
  </g>
</svg>