<?xml version="1.0" encoding="UTF-8"?>
<svg id="Camada_2" data-name="Camada 2" xmlns="http://www.w3.org/2000/svg" viewBox="0 0 263.65 361.43">
  <defs>
    <style>
      .cls-1 {
        fill: #151920;
      }

      .cls-2 {
        fill: #f15b27;
      }
    </style>
  </defs>
  <g id="Camada_1-2" data-name="Camada 1">
    <g>
      <path class="cls-2" d="M263.63,239.93l.02.06c.04,5.07-1.89,9.8-5.42,13.33l-102.69,102.69c-7.25,7.23-19.01,7.23-26.24,0-3.51-3.51-5.44-8.17-5.44-13.15s1.92-9.61,5.44-13.11l89.86-89.9-90.56-90.6c-3.51-3.48-5.44-8.14-5.44-13.09s1.92-9.63,5.44-13.15c3.49-3.49,8.15-5.42,13.13-5.42s9.61,1.92,13.11,5.42l103.4,103.4c3.53,3.53,5.45,8.32,5.42,13.46l-.02.06Z"/>
      <path class="cls-2" d="M135.15,212.25c3.51,3.49,5.45,8.15,5.45,13.11s-1.92,9.65-5.45,13.17c-7.25,7.23-19.03,7.23-26.26,0L5.42,135.05C1.87,131.5-.05,126.71,0,121.44c-.06-5.05,1.87-9.8,5.42-13.35L108.09,5.42c3.49-3.49,8.15-5.42,13.13-5.42s9.63,1.92,13.13,5.42c3.53,3.53,5.45,8.21,5.45,13.18s-1.94,9.6-5.45,13.11L44.53,121.57l90.62,90.68Z"/>
      <path class="cls-1" d="M101.44,307.79c-2.72,2.72-6.34,4.22-10.17,4.22s-7.45-1.5-10.17-4.2l-58.43-58.45c-5.62-5.6-5.62-14.72,0-20.32,2.79-2.81,6.47-4.22,10.15-4.22s7.36,1.41,10.17,4.22l58.43,58.43c5.62,5.6,5.62,14.72.02,20.32Z"/>
      <path class="cls-1" d="M245.36,122.38c0,3.85-1.5,7.45-4.22,10.17-2.72,2.72-6.32,4.22-10.17,4.22s-7.43-1.5-10.15-4.22l-58.45-58.45c-5.6-5.6-5.6-14.72,0-20.32,2.81-2.81,6.49-4.22,10.17-4.22s7.36,1.41,10.17,4.22l58.43,58.43c2.72,2.72,4.22,6.32,4.22,10.17Z"/>
    </g>
  </g>
</svg>