<?xml version="1.0" encoding="UTF-8"?>
<svg id="Camada_2" data-name="Camada 2" xmlns="http://www.w3.org/2000/svg" viewBox="0 0 527.31 191.7">
  <defs>
    <style>
      .cls-1 {
        fill: #f2f2f2;
      }

      .cls-2 {
        fill: #f15b27;
      }
    </style>
  </defs>
  <g id="Camada_1-2" data-name="Camada 1">
    <g>
      <g>
        <path class="cls-2" d="M139.83,127.26v.03c.03,2.69-.99,5.2-2.86,7.07l-54.47,54.47c-3.84,3.83-10.08,3.83-13.92,0-1.86-1.86-2.88-4.33-2.88-6.97s1.02-5.1,2.88-6.95l47.66-47.68-48.04-48.06c-1.86-1.84-2.88-4.32-2.88-6.94s1.02-5.11,2.88-6.97c1.85-1.85,4.32-2.87,6.96-2.87s5.1,1.02,6.95,2.87l54.84,54.84c1.87,1.87,2.89,4.41,2.87,7.14v.03Z"/>
        <path class="cls-2" d="M71.68,112.58c1.86,1.85,2.89,4.33,2.89,6.95s-1.02,5.12-2.89,6.98c-3.84,3.83-10.09,3.83-13.93,0L2.87,71.63C.99,69.75-.03,67.21,0,64.41c-.03-2.68.99-5.2,2.87-7.08L57.33,2.87c1.85-1.85,4.33-2.87,6.96-2.87s5.11,1.02,6.96,2.87,2.89,4.35,2.89,6.99-1.03,5.09-2.89,6.95l-47.64,47.66,48.07,48.1Z"/>
        <path class="cls-1" d="M53.8,163.25c-1.44,1.44-3.36,2.24-5.39,2.24s-3.95-.79-5.39-2.23l-30.99-31c-2.98-2.97-2.98-7.81,0-10.78,1.48-1.49,3.43-2.24,5.38-2.24s3.9.75,5.39,2.24l30.99,30.99c2.98,2.97,2.98,7.81,0,10.78Z"/>
        <path class="cls-1" d="M130.14,64.91c0,2.04-.79,3.95-2.24,5.39-1.44,1.44-3.35,2.24-5.39,2.24s-3.94-.79-5.38-2.24l-31-31c-2.97-2.97-2.97-7.81,0-10.78,1.49-1.49,3.44-2.24,5.39-2.24s3.9.75,5.39,2.24l30.99,30.99c1.44,1.44,2.24,3.35,2.24,5.39Z"/>
      </g>
      <g>
        <path class="cls-1" d="M176.49,28.73c1.77-1.41,4.16-2.12,7.14-2.12,3.47,0,6.58.93,9.32,2.78,2.74,1.86,4.76,4.4,6.05,7.63l10.65-5.08c-1.94-5.24-5.25-9.34-9.93-12.29-4.68-2.95-10.01-4.42-15.98-4.42-4.52,0-8.55.81-12.11,2.42-3.55,1.62-6.34,3.92-8.35,6.9-2.02,2.99-3.03,6.46-3.03,10.41,0,4.36,1.39,8.15,4.18,11.38,2.79,3.23,7.04,5.65,12.77,7.26l10.29,2.91c1.37.4,2.72.93,4.06,1.57,1.33.65,2.44,1.47,3.33,2.48.89,1.01,1.33,2.28,1.33,3.81,0,2.5-1.01,4.48-3.03,5.93-2.02,1.45-4.64,2.18-7.87,2.18-3.79,0-7.24-1.09-10.35-3.27-3.11-2.18-5.55-5.12-7.32-8.84l-10.53,4.96c2.02,5.57,5.53,10.01,10.53,13.32,5,3.31,10.89,4.96,17.67,4.96,4.84,0,9.08-.83,12.71-2.48s6.48-3.95,8.53-6.9c2.06-2.95,3.09-6.36,3.09-10.23,0-4.52-1.45-8.41-4.36-11.68s-7.06-5.67-12.47-7.2l-10.65-3.15c-1.37-.4-2.7-.91-3.99-1.51-1.29-.61-2.34-1.41-3.15-2.42-.81-1.01-1.21-2.28-1.21-3.81,0-2.26.89-4.09,2.66-5.51Z"/>
        <path class="cls-1" d="M262.01,18.14c-4-1.94-8.58-2.9-13.74-2.9-4.2,0-8.13.69-11.8,2.06-3.67,1.37-6.86,3.31-9.56,5.81-2.71,2.5-4.7,5.37-5.99,8.59l11.5,5.69c1.29-3.07,3.29-5.53,5.99-7.38,2.7-1.86,5.83-2.78,9.38-2.78,3.95,0,7.14,1.03,9.56,3.09,2.42,2.06,3.63,4.66,3.63,7.81v2.5l-20.82,3.43c-5.08.81-9.26,2.18-12.53,4.12s-5.69,4.32-7.26,7.14c-1.57,2.83-2.36,6.01-2.36,9.56,0,3.79.93,7.1,2.78,9.93,1.86,2.83,4.46,5,7.81,6.54,3.35,1.53,7.24,2.3,11.68,2.3,3.63,0,6.98-.53,10.05-1.57,3.07-1.05,5.77-2.54,8.11-4.48,1.15-.95,2.19-1.99,3.15-3.11v7.71h13.07v-44.07c0-4.52-1.11-8.49-3.33-11.92-2.22-3.43-5.33-6.11-9.32-8.05ZM258.62,63.96c-1.57,2.7-3.75,4.86-6.54,6.48-2.78,1.62-5.99,2.42-9.62,2.42-2.99,0-5.43-.79-7.32-2.36-1.9-1.57-2.84-3.61-2.84-6.11s.85-4.6,2.54-6.29,4.36-2.86,7.99-3.51l18.16-3.06v3.43c0,3.31-.79,6.32-2.36,9.02Z"/>
        <path class="cls-1" d="M381.56,27.09c-2.18-3.71-5.11-6.62-8.78-8.72-3.67-2.1-7.77-3.15-12.29-3.15-5.17,0-9.75,1.29-13.74,3.87-2.75,1.78-5,4.2-6.78,7.25-1.52-2.73-3.65-5.05-6.42-6.94-4.08-2.78-8.74-4.18-13.98-4.18-4.68,0-8.84,1.13-12.47,3.39-2.46,1.53-4.39,3.57-5.81,6.1v-8.04h-13.07v65.49h13.68v-38.62c0-3.23.58-5.99,1.75-8.29s2.8-4.09,4.9-5.39c2.1-1.29,4.52-1.94,7.26-1.94s5.25.65,7.26,1.94c2.02,1.29,3.61,3.09,4.78,5.39,1.17,2.3,1.76,5.07,1.76,8.29v38.62h13.68v-38.62c0-3.23.6-5.99,1.82-8.29,1.21-2.3,2.86-4.09,4.96-5.39,2.1-1.29,4.52-1.94,7.26-1.94s5.14.65,7.2,1.94c2.06,1.29,3.67,3.09,4.84,5.39,1.17,2.3,1.76,5.07,1.76,8.29v38.62h13.68v-42.37c0-4.76-1.09-9-3.27-12.71Z"/>
      </g>
      <g>
        <path class="cls-2" d="M176.49,121.57c1.77-1.41,4.16-2.12,7.14-2.12,3.47,0,6.58.93,9.32,2.78,2.74,1.86,4.76,4.4,6.05,7.63l10.65-5.08c-1.94-5.24-5.25-9.34-9.93-12.29-4.68-2.95-10.01-4.42-15.98-4.42-4.52,0-8.55.81-12.11,2.42-3.55,1.62-6.34,3.92-8.35,6.9-2.02,2.99-3.03,6.46-3.03,10.41,0,4.36,1.39,8.15,4.18,11.38,2.79,3.23,7.04,5.65,12.77,7.26l10.29,2.91c1.37.4,2.72.93,4.06,1.57,1.33.65,2.44,1.47,3.33,2.48.89,1.01,1.33,2.28,1.33,3.81,0,2.5-1.01,4.48-3.03,5.93-2.02,1.45-4.64,2.18-7.87,2.18-3.79,0-7.24-1.09-10.35-3.27-3.11-2.18-5.55-5.12-7.32-8.84l-10.53,4.96c2.02,5.57,5.53,10.01,10.53,13.32,5,3.31,10.89,4.96,17.67,4.96,4.84,0,9.08-.83,12.71-2.48,3.63-1.65,6.48-3.95,8.53-6.9,2.06-2.95,3.09-6.36,3.09-10.23,0-4.52-1.45-8.41-4.36-11.68s-7.06-5.67-12.47-7.2l-10.65-3.15c-1.37-.4-2.7-.91-3.99-1.51-1.29-.61-2.34-1.41-3.15-2.42-.81-1.01-1.21-2.28-1.21-3.81,0-2.26.89-4.09,2.66-5.51Z"/>
        <path class="cls-2" d="M262.01,110.98c-4-1.94-8.58-2.9-13.74-2.9-4.2,0-8.13.69-11.8,2.06-3.67,1.37-6.86,3.31-9.56,5.81-2.71,2.5-4.7,5.37-5.99,8.59l11.5,5.69c1.29-3.07,3.29-5.53,5.99-7.38,2.7-1.86,5.83-2.78,9.38-2.78,3.95,0,7.14,1.03,9.56,3.09,2.42,2.06,3.63,4.66,3.63,7.81v2.5l-20.82,3.43c-5.08.81-9.26,2.18-12.53,4.12s-5.69,4.32-7.26,7.14c-1.57,2.83-2.36,6.01-2.36,9.56,0,3.79.93,7.1,2.78,9.93,1.86,2.83,4.46,5,7.81,6.54,3.35,1.53,7.24,2.3,11.68,2.3,3.63,0,6.98-.53,10.05-1.57,3.07-1.05,5.77-2.54,8.11-4.48,1.15-.95,2.19-1.99,3.15-3.11v7.71h13.07v-44.07c0-4.52-1.11-8.49-3.33-11.92-2.22-3.43-5.33-6.11-9.32-8.05ZM258.62,156.8c-1.57,2.7-3.75,4.86-6.54,6.48-2.78,1.62-5.99,2.42-9.62,2.42-2.99,0-5.43-.79-7.32-2.36-1.9-1.57-2.84-3.61-2.84-6.11s.85-4.6,2.54-6.29,4.36-2.86,7.99-3.51l18.16-3.06v3.43c0,3.31-.79,6.32-2.36,9.02Z"/>
        <path class="cls-2" d="M332.65,111.22c-3.71-2.1-7.99-3.15-12.83-3.15s-8.8,1.07-12.35,3.21c-2.57,1.55-4.62,3.62-6.17,6.19v-7.95h-13.07v65.49h13.68v-38.62c0-3.23.6-5.99,1.81-8.29,1.21-2.3,2.93-4.09,5.14-5.39,2.22-1.29,4.74-1.94,7.57-1.94s5.33.65,7.51,1.94c2.18,1.29,3.87,3.09,5.08,5.39s1.82,5.07,1.82,8.29v38.62h13.68v-42.25c0-4.84-1.05-9.12-3.15-12.83-2.1-3.71-5-6.62-8.72-8.72Z"/>
        <path class="cls-2" d="M387.97,163.64c-2.58,0-4.68-.42-6.29-1.27-1.62-.85-2.78-2.06-3.51-3.63s-1.09-3.49-1.09-5.75v-30.99h14.89v-12.47h-14.89v-15.01h-13.68v5.08c0,3.07-.87,5.49-2.6,7.26-1.74,1.78-4.14,2.66-7.2,2.66h-1.82v12.47h11.62v31.59c0,7.02,1.89,12.47,5.69,16.34,3.79,3.87,9.12,5.81,15.98,5.81,1.05,0,2.26-.08,3.63-.24,1.37-.16,2.62-.32,3.75-.48v-11.74c-.73.08-1.49.16-2.3.24-.81.08-1.53.12-2.18.12Z"/>
        <path class="cls-2" d="M451.1,112.49c-5.13-2.95-10.92-4.42-17.37-4.42s-12.27,1.47-17.43,4.42c-5.17,2.95-9.26,6.98-12.29,12.11-3.03,5.13-4.54,11-4.54,17.61s1.53,12.39,4.6,17.55c3.07,5.17,7.18,9.24,12.35,12.23,5.16,2.99,10.93,4.48,17.31,4.48s12.02-1.47,17.19-4.42c5.16-2.95,9.28-7,12.35-12.17,3.07-5.16,4.6-11.06,4.6-17.67s-1.51-12.49-4.54-17.61c-3.03-5.12-7.1-9.16-12.23-12.11ZM450.98,153.29c-1.74,3.27-4.1,5.83-7.08,7.69-2.99,1.86-6.38,2.78-10.17,2.78s-7.2-.93-10.23-2.78c-3.03-1.86-5.41-4.42-7.14-7.69-1.74-3.27-2.6-6.96-2.6-11.08s.87-7.77,2.6-10.96c1.74-3.19,4.12-5.73,7.14-7.63,3.03-1.9,6.43-2.85,10.23-2.85s7.18.95,10.17,2.85c2.99,1.9,5.35,4.44,7.08,7.63,1.74,3.19,2.6,6.84,2.6,10.96s-.87,7.81-2.6,11.08Z"/>
        <path class="cls-2" d="M510.48,137.98l-10.65-3.15c-1.37-.4-2.7-.91-3.99-1.51-1.29-.61-2.34-1.41-3.15-2.42-.81-1.01-1.21-2.28-1.21-3.81,0-2.26.89-4.09,2.66-5.51,1.77-1.41,4.16-2.12,7.14-2.12,3.47,0,6.58.93,9.32,2.78,2.74,1.86,4.76,4.4,6.05,7.63l10.65-5.08c-1.94-5.24-5.25-9.34-9.93-12.29-4.68-2.95-10.01-4.42-15.98-4.42-4.52,0-8.55.81-12.11,2.42-3.55,1.62-6.34,3.92-8.35,6.9-2.02,2.99-3.03,6.46-3.03,10.41,0,4.36,1.39,8.15,4.18,11.38,2.79,3.23,7.04,5.65,12.77,7.26l10.29,2.91c1.37.4,2.72.93,4.06,1.57,1.33.65,2.44,1.47,3.33,2.48.89,1.01,1.33,2.28,1.33,3.81,0,2.5-1.01,4.48-3.03,5.93-2.02,1.45-4.64,2.18-7.87,2.18-3.79,0-7.24-1.09-10.35-3.27-3.11-2.18-5.55-5.12-7.32-8.84l-10.53,4.96c2.02,5.57,5.53,10.01,10.53,13.32,5,3.31,10.89,4.96,17.67,4.96,4.84,0,9.08-.83,12.71-2.48,3.63-1.65,6.48-3.95,8.53-6.9,2.06-2.95,3.09-6.36,3.09-10.23,0-4.52-1.45-8.41-4.36-11.68s-7.06-5.67-12.47-7.2Z"/>
      </g>
    </g>
  </g>
</svg>